<svg viewBox="0 0 512 512" xmlns="http://www.w3.org/2000/svg"><path d="m0 0h512v512h-512z" fill="#1a1b1e"/><path d="m0 0h512v512h-512z" fill="none"/><g fill="#fff"><rect height="218.46" rx="4.9" width="36.94" x="295.18" y="146.77"/><rect height="218.46" rx="4.9" width="36.94" x="369.06" y="146.77"/><path d="m262.89 252.13-149.26-100a4.9 4.9 0 0 0 -7.63 4.07v80.48a2.44 2.44 0 0 0 2 2.41l81.51 14.42a2.78 2.78 0 0 1 0 5.48l-81.51 14.36a2.46 2.46 0 0 0 -2 2.42v80.48a4.9 4.9 0 0 0 7.63 4.07l149.26-100.05a4.9 4.9 0 0 0 0-8.14z"/></g></svg>